<svg width="14" height="19" viewBox="0 0 14 19" fill="none" xmlns="http://www.w3.org/2000/svg">
<path d="M6.81534 18.2386C5.58807 18.2386 4.49716 18.0284 3.54261 17.608C2.59375 17.1875 1.84375 16.6023 1.29261 15.8523C0.741477 15.1023 0.448864 14.2358 0.414773 13.2528H3.61932C3.64773 13.7244 3.80398 14.1364 4.08807 14.4886C4.37216 14.8352 4.75 15.1051 5.22159 15.2983C5.69318 15.4915 6.22159 15.5881 6.80682 15.5881C7.43182 15.5881 7.9858 15.4801 8.46875 15.2642C8.9517 15.0426 9.32955 14.7358 9.60227 14.3438C9.875 13.9517 10.0085 13.5 10.0028 12.9886C10.0085 12.4602 9.87216 11.9943 9.59375 11.5909C9.31534 11.1875 8.91193 10.8722 8.38352 10.6449C7.8608 10.4176 7.23011 10.304 6.49148 10.304H4.94886V7.86648H6.49148C7.09943 7.86648 7.63068 7.76136 8.08523 7.55114C8.54545 7.34091 8.90625 7.04545 9.16761 6.66477C9.42898 6.27841 9.55682 5.83239 9.55114 5.3267C9.55682 4.83239 9.44602 4.40341 9.21875 4.03977C8.99716 3.67045 8.68182 3.38352 8.27273 3.17898C7.86932 2.97443 7.39489 2.87216 6.84943 2.87216C6.31534 2.87216 5.82102 2.96875 5.36648 3.16193C4.91193 3.35511 4.54545 3.63068 4.26705 3.98864C3.98864 4.34091 3.84091 4.76136 3.82386 5.25H0.78125C0.803977 4.27273 1.08523 3.41477 1.625 2.67614C2.17045 1.93182 2.89773 1.35227 3.80682 0.9375C4.71591 0.517045 5.7358 0.306818 6.86648 0.306818C8.03125 0.306818 9.04261 0.525568 9.90057 0.963068C10.7642 1.39489 11.4318 1.97727 11.9034 2.71023C12.375 3.44318 12.6108 4.25284 12.6108 5.1392C12.6165 6.12216 12.3267 6.94602 11.7415 7.6108C11.1619 8.27557 10.4006 8.71023 9.45739 8.91477V9.05114C10.6847 9.22159 11.625 9.67614 12.2784 10.4148C12.9375 11.1477 13.2642 12.0597 13.2585 13.1506C13.2585 14.1278 12.9801 15.0028 12.4233 15.7756C11.8722 16.5426 11.1108 17.1449 10.1392 17.5824C9.1733 18.0199 8.06534 18.2386 6.81534 18.2386Z" fill="#2851E3"/>
</svg>
