<svg width="13" height="18" viewBox="0 0 13 18" fill="none" xmlns="http://www.w3.org/2000/svg">
<path d="M0.551136 18V15.7159L6.6108 9.77557C7.19034 9.19034 7.6733 8.67045 8.05966 8.21591C8.44602 7.76136 8.7358 7.32102 8.92898 6.89489C9.12216 6.46875 9.21875 6.0142 9.21875 5.53125C9.21875 4.98011 9.09375 4.50852 8.84375 4.11648C8.59375 3.71875 8.25 3.41193 7.8125 3.19602C7.375 2.98011 6.87784 2.87216 6.32102 2.87216C5.74716 2.87216 5.24432 2.99148 4.8125 3.23011C4.38068 3.46307 4.04545 3.79545 3.80682 4.22727C3.57386 4.65909 3.45739 5.1733 3.45739 5.76989H0.448864C0.448864 4.66193 0.701705 3.69886 1.20739 2.88068C1.71307 2.0625 2.40909 1.42898 3.29545 0.980114C4.1875 0.53125 5.21023 0.306818 6.36364 0.306818C7.53409 0.306818 8.5625 0.525568 9.44886 0.963068C10.3352 1.40057 11.0227 2 11.5114 2.76136C12.0057 3.52273 12.2528 4.39204 12.2528 5.36932C12.2528 6.02273 12.1278 6.66477 11.8778 7.29545C11.6278 7.92614 11.1875 8.625 10.5568 9.39205C9.93182 10.1591 9.05398 11.0881 7.9233 12.179L4.91477 15.2386V15.358H12.517V18H0.551136Z" fill="#2851E3"/>
</svg>
