<?xml version="1.0" encoding="UTF-8" standalone="no"?>
<!DOCTYPE svg PUBLIC "-//W3C//DTD SVG 1.1//EN" "http://www.w3.org/Graphics/SVG/1.1/DTD/svg11.dtd">
<svg width="100%" height="100%" viewBox="0 0 79 101" version="1.1" xmlns="http://www.w3.org/2000/svg" xmlns:xlink="http://www.w3.org/1999/xlink" xml:space="preserve" xmlns:serif="http://www.serif.com/" style="fill-rule:evenodd;clip-rule:evenodd;stroke-linecap:round;stroke-linejoin:round;stroke-miterlimit:1.5;">
    <g id="Artboard1" transform="matrix(0.990551,0,0,1,-11.1707,-0.220647)">
        <rect x="11.277" y="0.221" width="78.797" height="100.335" style="fill:none;"/>
        <clipPath id="_clip1">
            <rect x="11.277" y="0.221" width="78.797" height="100.335"/>
        </clipPath>
        <g clip-path="url(#_clip1)">
            <g id="flower" transform="matrix(1.00954,0,0,1,-0.579337,0.220647)">
                <g id="handle">
                    <path id="stem" d="M46.524,73.943C46.524,75.601 46.994,77.477 47.392,79.068C47.891,81.063 47.816,83.163 48.315,85.159C48.771,86.983 48.911,88.635 48.911,90.587C48.911,91.674 49.282,93.108 49.022,94.132C48.656,95.579 47.993,96.844 47.58,98.205C47.312,99.088 46.505,99.558 46.505,100.513" style="fill:none;stroke:black;stroke-width:3.5px;"/>
                    <path id="leaf" d="M50.449,90.078C59.966,87.78 63.714,86.248 65.162,77.776" style="fill:none;stroke:black;stroke-width:3.5px;"/>
                    <path id="leaf1" serif:id="leaf" d="M50.449,90.078C55.225,80.912 65.162,77.776 65.162,77.776" style="fill:none;stroke:black;stroke-width:3.5px;"/>
                    <path id="leaf2" serif:id="leaf" d="M47.583,89.333C28.661,81.253 31.237,83.568 28.661,81.253C26.085,78.938 26.533,79.053 30.04,77.741C33.546,76.428 33.374,75.682 35.645,76.332C37.916,76.982 37.147,76.042 39.047,77.703C40.946,79.364 40.228,78.626 41.877,80.493C43.526,82.361 42.748,81.478 44.213,83.198C45.679,84.917 44.292,81.998 46.001,85.607" style="fill:none;stroke:black;stroke-width:3.5px;"/>
                </g>
                <path id="cloud" d="M32.878,32.396C27.053,30.105 22.967,24.789 22.967,18.603C22.967,10.326 30.281,3.607 39.291,3.607C48.301,3.607 55.616,10.326 55.616,18.603C55.616,19.686 55.491,20.742 55.253,21.76C58.389,17.462 63.43,14.672 69.109,14.672C78.611,14.672 86.325,22.48 86.325,32.098C86.325,39.377 81.905,45.62 75.638,48.224C77.186,50.205 78.095,52.613 78.095,55.209C78.095,61.956 71.956,67.435 64.394,67.435C60.689,67.435 57.325,66.119 54.858,63.984C54.514,69.028 49.787,73.031 44.015,73.031C40.668,73.031 37.673,71.686 35.68,69.573C34.141,70.242 32.403,70.619 30.564,70.619C24.268,70.619 19.155,66.201 19.155,60.759C19.155,58.102 20.374,55.689 22.354,53.915C18.028,51.879 15.124,48.126 15.124,43.836C15.124,37.38 21.702,32.139 29.805,32.139C30.859,32.139 31.887,32.228 32.878,32.396Z" style="fill:rgb(235,235,235);fill-opacity:0.75;stroke:black;stroke-width:3.5px;"/>
                <g id="face" transform="matrix(1.25351,0,0,1.13901,-13.991,-8.08281)">
                    <ellipse cx="48.974" cy="46.431" rx="8.275" ry="11.98" style="fill:rgb(235,235,235);fill-opacity:0.75;stroke:black;stroke-width:2.92px;"/>
                </g>
                <g id="eyes">
                    <g id="eye" transform="matrix(1,0,0,1,1.38959,-0.208743)">
                        <path d="M42.286,37.486C41.78,37.486 41.229,37.666 40.773,38.216C40.433,38.628 40.014,39.755 40.014,41.129C40.014,42.502 40.433,43.629 40.773,44.041C41.229,44.592 41.78,44.772 42.286,44.772C42.793,44.772 43.343,44.592 43.799,44.041C44.14,43.629 44.559,42.502 44.559,41.129C44.559,39.755 44.14,38.628 43.799,38.216C43.343,37.666 42.793,37.486 42.286,37.486Z"/>
                    </g>
                    <g id="eye1" serif:id="eye" transform="matrix(1,0,0,1,7.83789,-0.0254565)">
                        <path d="M42.286,37.486C41.78,37.486 41.229,37.666 40.773,38.216C40.433,38.628 40.014,39.755 40.014,41.129C40.014,42.502 40.433,43.629 40.773,44.041C41.229,44.592 41.78,44.772 42.286,44.772C42.793,44.772 43.343,44.592 43.799,44.041C44.14,43.629 44.559,42.502 44.559,41.129C44.559,39.755 44.14,38.628 43.799,38.216C43.343,37.666 42.793,37.486 42.286,37.486Z"/>
                    </g>
                </g>
            </g>
        </g>
    </g>
</svg>
