<svg width="153" height="25" viewBox="0 0 153 25" fill="none" xmlns="http://www.w3.org/2000/svg">
<path d="M12.5 2.5L15.59 8.76L22.5 9.77L17.5 14.64L18.68 21.52L12.5 18.27L6.32 21.52L7.5 14.64L2.5 9.77L9.41 8.76L12.5 2.5Z" fill="#3261E9"/>
<path d="M44.5 2.5L47.59 8.76L54.5 9.77L49.5 14.64L50.68 21.52L44.5 18.27L38.32 21.52L39.5 14.64L34.5 9.77L41.41 8.76L44.5 2.5Z" fill="#3261E9"/>
<path d="M76.5 2.5L79.59 8.76L86.5 9.77L81.5 14.64L82.68 21.52L76.5 18.27L70.32 21.52L71.5 14.64L66.5 9.77L73.41 8.76L76.5 2.5Z" fill="#3261E9"/>
<path d="M108.5 2.5L111.59 8.76L118.5 9.77L113.5 14.64L114.68 21.52L108.5 18.27L102.32 21.52L103.5 14.64L98.5 9.77L105.41 8.76L108.5 2.5Z" fill="#3261E9"/>
<path d="M140.5 2.5L143.59 8.76L150.5 9.77L145.5 14.64L146.68 21.52L140.5 18.27L134.32 21.52L135.5 14.64L130.5 9.77L137.41 8.76L140.5 2.5Z" fill="#3261E9"/>
</svg>
