<?xml version="1.0" encoding="UTF-8" standalone="no"?>
<!DOCTYPE svg PUBLIC "-//W3C//DTD SVG 1.1//EN" "http://www.w3.org/Graphics/SVG/1.1/DTD/svg11.dtd">
<svg width="100%" height="100%" viewBox="0 0 1200 630" version="1.1" xmlns="http://www.w3.org/2000/svg" xmlns:xlink="http://www.w3.org/1999/xlink" xml:space="preserve" xmlns:serif="http://www.serif.com/" style="fill-rule:evenodd;clip-rule:evenodd;stroke-linecap:round;stroke-linejoin:round;stroke-miterlimit:1.5;">
    <g transform="matrix(0.805274,0.805281,-0.805281,0.805274,226.883,-88.7287)">
        <path d="M163.598,133.562C115.367,133.562 76.267,172.661 76.267,220.892C76.267,269.091 115.399,308.222 163.598,308.222C211.829,308.222 250.928,269.123 250.928,220.892L163.598,220.892L163.598,133.562Z" style="fill:rgb(255,226,0);"/>
    </g>
    <g transform="matrix(0.805274,0.805281,-0.805281,0.805274,396.644,-88.7287)">
        <path d="M163.598,133.562C115.367,133.562 76.267,172.661 76.267,220.892C76.267,269.091 115.399,308.222 163.598,308.222C211.829,308.222 250.928,269.123 250.928,220.892L163.598,220.892L163.598,133.562Z" style="fill:rgb(17,227,198);"/>
    </g>
    <g transform="matrix(0.805274,0.805281,-0.805281,0.805274,566.404,-88.7287)">
        <path d="M163.598,133.562C115.367,133.562 76.267,172.661 76.267,220.892C76.267,269.091 115.399,308.222 163.598,308.222C211.829,308.222 250.928,269.123 250.928,220.892L163.598,220.892L163.598,133.562Z" style="fill:rgb(255,226,0);"/>
    </g>
    <g transform="matrix(0.805274,0.805281,-0.805281,0.805274,736.165,-88.7287)">
        <path d="M163.598,133.562C115.367,133.562 76.267,172.661 76.267,220.892C76.267,269.091 115.399,308.222 163.598,308.222C211.829,308.222 250.928,269.123 250.928,220.892L163.598,220.892L163.598,133.562Z" style="fill:rgb(17,227,198);"/>
    </g>
    <g transform="matrix(0.805274,0.805281,-0.805281,0.805274,905.925,-88.7287)">
        <path d="M163.598,133.562C115.367,133.562 76.267,172.661 76.267,220.892C76.267,269.091 115.399,308.222 163.598,308.222C211.829,308.222 250.928,269.123 250.928,220.892L163.598,220.892L163.598,133.562Z" style="fill:rgb(255,226,0);"/>
    </g>
    <g transform="matrix(0.805274,0.805281,-0.805281,0.805274,1075.69,-88.7287)">
        <path d="M163.598,133.562C115.367,133.562 76.267,172.661 76.267,220.892C76.267,269.091 115.399,308.222 163.598,308.222C211.829,308.222 250.928,269.123 250.928,220.892L163.598,220.892L163.598,133.562Z" style="fill:rgb(17,227,198);"/>
    </g>
    <g transform="matrix(1,0,0,1,0,-3.71276)">
        <path d="M153.672,168.438C157.234,163.363 164.357,163.363 167.918,165.901C171.48,168.438 171.48,173.513 167.918,178.588C165.425,182.395 159.015,186.201 153.672,188.738C148.33,186.201 141.92,182.395 139.427,178.588C135.865,173.513 135.865,168.438 139.427,165.901C142.988,163.363 150.111,163.363 153.672,168.438Z"/>
    </g>
    <g transform="matrix(1,0,0,1,30,-11)">
        <path d="M317.012,162.025C317.012,162.025 308.512,179.875 308.512,187.525C308.512,192.217 312.321,196.026 317.012,196.026C321.704,196.026 325.513,192.217 325.513,187.525C325.513,179.875 317.012,162.025 317.012,162.025Z"/>
    </g>
    <g transform="matrix(1,0,0,1,20.6657,-14.1567)">
        <path d="M498.462,164.69C497.35,164.582 496.231,164.582 495.119,164.69L494.568,167.371C493.502,167.534 492.458,167.814 491.453,168.205L489.636,166.159C488.618,166.621 487.649,167.181 486.74,167.831L487.603,170.428C486.762,171.102 485.997,171.867 485.323,172.708L482.726,171.845C482.076,172.754 481.516,173.723 481.054,174.74L483.1,176.558C482.709,177.562 482.429,178.607 482.266,179.673L479.585,180.224C479.477,181.336 479.477,182.455 479.585,183.567L482.266,184.118C482.429,185.184 482.709,186.228 483.1,187.233L481.054,189.05C481.516,190.067 482.076,191.037 482.726,191.946L485.323,191.083C485.997,191.924 486.762,192.689 487.603,193.363L486.74,195.96C487.649,196.61 488.618,197.17 489.636,197.632L491.453,195.586C492.458,195.977 493.502,196.257 494.568,196.42L495.119,199.101C496.231,199.209 497.35,199.209 498.462,199.101L499.013,196.42C500.079,196.257 501.123,195.977 502.128,195.586L503.945,197.632C504.963,197.17 505.932,196.61 506.841,195.96L505.978,193.363C506.819,192.689 507.584,191.924 508.258,191.083L510.855,191.946C511.505,191.037 512.065,190.067 512.527,189.05L510.481,187.233C510.872,186.228 511.152,185.184 511.315,184.118L513.996,183.567C514.104,182.455 514.104,181.336 513.996,180.224L511.315,179.673C511.152,178.607 510.872,177.562 510.481,176.558L512.527,174.74C512.065,173.723 511.505,172.754 510.855,171.845L508.258,172.708C507.584,171.867 506.819,171.102 505.978,170.428L506.841,167.831C505.932,167.181 504.963,166.621 503.945,166.159L502.128,168.205C501.123,167.814 500.079,167.534 499.013,167.371L498.462,164.69ZM496.791,178.438C498.699,178.438 500.248,179.987 500.248,181.895C500.248,183.804 498.699,185.353 496.791,185.353C494.882,185.353 493.333,183.804 493.333,181.895C493.333,179.987 494.882,178.438 496.791,178.438Z"/>
    </g>
    <g transform="matrix(1,0,0,1,25.3094,-11.097)">
        <path d="M660.902,161.06C670.578,161.06 678.433,168.915 678.433,178.591C678.433,188.267 670.578,196.123 660.902,196.123C651.226,196.123 643.37,188.267 643.37,178.591C643.37,168.915 651.226,161.06 660.902,161.06ZM660.902,169.825C665.74,169.825 669.668,173.753 669.668,178.591C669.668,183.429 665.74,187.357 660.902,187.357C656.064,187.357 652.136,183.429 652.136,178.591C652.136,173.753 656.064,169.825 660.902,169.825Z"/>
    </g>
    <g transform="matrix(1,0,0,1,38.1347,-9.79146)">
        <path d="M816.359,166.162L824.687,172.212L820.523,177.943L827.26,180.132L824.079,189.922L817.342,187.733L817.342,194.817L807.048,194.817L807.048,187.733L800.311,189.922L797.13,180.132L803.867,177.943L799.703,172.212L808.031,166.162L812.195,171.893L816.359,166.162Z"/>
    </g>
    <g transform="matrix(1,0,0,1,54.5579,-15.6578)">
        <path d="M973.948,169.069L977.872,181.145L990.569,181.145L980.297,188.608L984.22,200.683L973.948,193.22L963.676,200.683L967.6,188.608L957.328,181.145L970.025,181.145L973.948,169.069Z"/>
    </g>
    <g transform="matrix(1,0,0,1,-20.4022,-20.4022)">
        <path d="M362.947,513.798L362.947,571.89L273.574,482.517L362.947,393.144L362.947,451.237L899.185,451.237L899.185,393.144L988.558,482.517L899.185,571.89L899.185,513.798L362.947,513.798Z" style="fill:rgb(255,226,0);stroke:rgb(17,227,198);stroke-width:1px;"/>
    </g>
    <g transform="matrix(1,0,0,1,100.941,404.824)">
        <text x="398.735px" y="100.949px" style="font-family:'Arial-BoldMT', 'Arial', sans-serif;font-weight:700;font-size:124.708px;fill:rgb(17,227,198);stroke:rgb(255,226,0);stroke-width:1px;stroke-linecap:butt;stroke-miterlimit:2;">ALE</text>
    </g>
</svg>
