<svg width="28" height="22" viewBox="0 0 28 22" fill="none" xmlns="http://www.w3.org/2000/svg">
<path d="M21.1625 5.66248C21.5261 5.29983 21.9734 5.03237 22.4649 4.88374C22.9564 4.73511 23.477 4.7099 23.9806 4.81033C24.4842 4.91077 24.9553 5.13375 25.3522 5.45956C25.7491 5.78538 26.0596 6.20398 26.2562 6.67834C26.4529 7.15271 26.5296 7.66822 26.4796 8.17928C26.4296 8.69035 26.2544 9.18122 25.9695 9.60847C25.6847 10.0357 25.2989 10.3862 24.8464 10.6289C24.3939 10.8716 23.8885 10.9991 23.375 11H1.5M10.9875 1.73748C11.2779 1.44537 11.6359 1.22953 12.0298 1.10915C12.4237 0.988776 12.8413 0.967586 13.2453 1.04747C13.6494 1.12735 14.0275 1.30583 14.3459 1.56703C14.6644 1.82824 14.9134 2.16409 15.0708 2.54472C15.2282 2.92535 15.2891 3.33897 15.2481 3.74881C15.2071 4.15865 15.0655 4.55201 14.8358 4.89393C14.6062 5.23584 14.2956 5.51572 13.9317 5.70868C13.5678 5.90164 13.1619 6.00171 12.75 5.99998H1.5L10.9875 1.73748ZM14.7375 20.2625C15.0279 20.5546 15.3859 20.7704 15.7798 20.8908C16.1737 21.0112 16.5913 21.0324 16.9953 20.9525C17.3994 20.8726 17.7775 20.6941 18.0959 20.4329C18.4144 20.1717 18.6634 19.8359 18.8208 19.4552C18.9782 19.0746 19.0391 18.661 18.9981 18.2511C18.9571 17.8413 18.8155 17.4479 18.5858 17.106C18.3562 16.7641 18.0456 16.4842 17.6817 16.2913C17.3178 16.0983 16.9119 15.9982 16.5 16H1.5L14.7375 20.2625Z" stroke="#2851E3" stroke-width="2" stroke-linecap="round" stroke-linejoin="round"/>
</svg>
