<svg width="30" height="30" viewBox="0 0 30 30" fill="none" xmlns="http://www.w3.org/2000/svg">
<path d="M17.5 18.45V4.375C17.5 3.5462 17.1708 2.75134 16.5847 2.16529C15.9987 1.57924 15.2038 1.25 14.375 1.25C13.5462 1.25 12.7513 1.57924 12.1653 2.16529C11.5792 2.75134 11.25 3.5462 11.25 4.375V18.45C10.2466 19.1204 9.4854 20.0958 9.07884 21.232C8.67228 22.3682 8.6419 23.6051 8.9922 24.7599C9.34249 25.9147 10.0549 26.9262 11.0242 27.6451C11.9935 28.364 13.1682 28.7521 14.375 28.7521C15.5818 28.7521 16.7565 28.364 17.7258 27.6451C18.6951 26.9262 19.4075 25.9147 19.7578 24.7599C20.1081 23.6051 20.0777 22.3682 19.6712 21.232C19.2646 20.0958 18.5034 19.1204 17.5 18.45Z" stroke="#2851E3" stroke-width="2" stroke-linecap="round" stroke-linejoin="round"/>
</svg>
