<svg width="30" height="30" viewBox="0 0 30 30" fill="none" xmlns="http://www.w3.org/2000/svg">
<path d="M15 23.75C19.8325 23.75 23.75 19.8325 23.75 15C23.75 10.1675 19.8325 6.25 15 6.25C10.1675 6.25 6.25 10.1675 6.25 15C6.25 19.8325 10.1675 23.75 15 23.75Z" stroke="#2851E3" stroke-width="2" stroke-linecap="round" stroke-linejoin="round"/>
<path d="M15 11.25V15L16.875 16.875" stroke="#2851E3" stroke-width="2" stroke-linecap="round" stroke-linejoin="round"/>
<path d="M20.6375 21.6875L20.2 26.475C20.1437 27.0983 19.8556 27.6778 19.3928 28.0991C18.9299 28.5203 18.3258 28.7526 17.7 28.75H12.2875C11.6617 28.7526 11.0576 28.5203 10.5948 28.0991C10.1319 27.6778 9.84383 27.0983 9.78751 26.475L9.35001 21.6875M9.36251 8.31252L9.80001 3.52502C9.85614 2.90387 10.1424 2.32613 10.6026 1.90521C11.0629 1.4843 11.6638 1.25061 12.2875 1.25002H17.725C18.3508 1.24748 18.9549 1.47977 19.4178 1.90099C19.8806 2.32221 20.1687 2.90172 20.225 3.52502L20.6625 8.31252" stroke="#2851E3" stroke-width="2" stroke-linecap="round" stroke-linejoin="round"/>
</svg>
