<?xml version="1.0" encoding="UTF-8" standalone="no"?>
<!DOCTYPE svg PUBLIC "-//W3C//DTD SVG 1.1//EN" "http://www.w3.org/Graphics/SVG/1.1/DTD/svg11.dtd">
<svg width="100%" height="100%" viewBox="0 0 800 600" version="1.1" xmlns="http://www.w3.org/2000/svg" xmlns:xlink="http://www.w3.org/1999/xlink" xml:space="preserve" xmlns:serif="http://www.serif.com/" style="fill-rule:evenodd;clip-rule:evenodd;stroke-linejoin:round;stroke-miterlimit:2;">
    <rect x="-7" y="-7" width="829" height="619" style="fill:rgb(43,54,59);"/>
    <g transform="matrix(1,0,0,1,-56,-10)">
        <text x="96px" y="315.813px" style="font-family:'DMSerifDisplay-Regular', 'DM Serif Display';font-size:125px;fill:white;">And<tspan x="320px " y="315.813px ">y</tspan> L<tspan x="480.625px " y="315.813px ">S</tspan>Q</text>
        <text x="96px" y="391.813px" style="font-family:'DMSerifDisplay-Regular', 'DM Serif Display';font-size:48px;fill:rgb(255,0,115);">F<tspan x="119.472px 139.008px 164.304px 190.944px 207.408px 217.008px 242.784px 269.664px 296.352px 304.8px 343.536px 366.24px 393.264px 402.864px 433.104px 456.384px 479.712px 502.416px 515.28px 540.096px 567.264px " y="391.813px 391.813px 391.813px 391.813px 391.813px 391.813px 391.813px 391.813px 391.813px 391.813px 391.813px 391.813px 391.813px 391.813px 391.813px 391.813px 391.813px 391.813px 391.813px 391.813px 391.813px ">ront End Web Develope</tspan></text>
        <text x="590.736px" y="391.813px" style="font-family:'DMSerifDisplay-Regular', 'DM Serif Display';font-size:48px;fill:rgb(255,0,115);">r</text>
    </g>
</svg>
