<?xml version="1.0" encoding="UTF-8" standalone="no"?>
<!DOCTYPE svg PUBLIC "-//W3C//DTD SVG 1.1//EN" "http://www.w3.org/Graphics/SVG/1.1/DTD/svg11.dtd">
<svg width="100%" height="100%" viewBox="0 0 227 217" version="1.1" xmlns="http://www.w3.org/2000/svg" xmlns:xlink="http://www.w3.org/1999/xlink" xml:space="preserve" xmlns:serif="http://www.serif.com/" style="fill-rule:evenodd;clip-rule:evenodd;stroke-linejoin:round;stroke-miterlimit:2;">
    <g id="Artboard1" transform="matrix(0.903822,0,0,0.892544,-90.3428,-158.425)">
        <rect x="99.956" y="177.498" width="250.523" height="242.12" style="fill:none;"/>
        <g transform="matrix(1.10641,0,0,1.12039,-26.1452,-40.6224)">
            <path d="M207.104,221.691C207.104,209.741 216.806,200.04 228.756,200.04C240.705,200.04 250.407,209.741 250.407,221.691C256.382,211.342 269.634,207.791 279.983,213.766C290.332,219.741 293.883,232.993 287.908,243.342C298.257,237.367 311.509,240.918 317.484,251.267C323.459,261.616 319.908,274.868 309.559,280.843C321.509,280.843 331.21,290.545 331.21,302.494C331.21,314.444 321.509,324.146 309.559,324.146C319.908,330.121 323.459,343.373 317.484,353.722C311.509,364.071 298.257,367.622 287.908,361.647C293.883,371.995 290.332,385.248 279.983,391.223C269.634,397.198 256.382,393.647 250.407,383.298C250.407,395.248 240.705,404.949 228.756,404.949C216.806,404.949 207.104,395.248 207.104,383.298C201.129,393.647 187.877,397.198 177.528,391.223C167.179,385.248 163.628,371.995 169.603,361.647C159.255,367.622 146.002,364.071 140.027,353.722C134.052,343.373 137.603,330.121 147.952,324.146C136.002,324.146 126.301,314.444 126.301,302.494C126.301,290.545 136.002,280.843 147.952,280.843C137.603,274.868 134.052,261.616 140.027,251.267C146.002,240.918 159.255,237.367 169.603,243.342C163.628,232.993 167.179,219.741 177.528,213.766C187.877,207.791 201.129,211.342 207.104,221.691Z"/>
        </g>
    </g>
</svg>
