<?xml version="1.0" encoding="UTF-8" standalone="no"?>
<!DOCTYPE svg PUBLIC "-//W3C//DTD SVG 1.1//EN" "http://www.w3.org/Graphics/SVG/1.1/DTD/svg11.dtd">
<svg width="100%" height="100%" viewBox="0 0 222 222" version="1.1" xmlns="http://www.w3.org/2000/svg" xmlns:xlink="http://www.w3.org/1999/xlink" xml:space="preserve" xmlns:serif="http://www.serif.com/" style="fill-rule:evenodd;clip-rule:evenodd;stroke-linejoin:round;stroke-miterlimit:2;">
    <g id="Artboard1" transform="matrix(0.864155,0,0,0.866786,-251.025,-148.961)">
        <rect x="290.486" y="171.855" width="256.119" height="255.041" style="fill:none;"/>
        <g transform="matrix(1.1572,0,0,1.15369,-64.7861,-47.072)">
            <path d="M427.601,191.719C420.597,191.039 413.542,191.039 406.538,191.719L403.069,208.608C396.355,209.636 389.774,211.399 383.446,213.866L371.997,200.974C365.591,203.887 359.482,207.414 353.756,211.506L359.196,227.867C353.895,232.114 349.078,236.931 344.831,242.231L328.471,236.791C324.379,242.517 320.852,248.626 317.939,255.033L330.83,266.482C328.363,272.81 326.6,279.39 325.573,286.104L308.684,289.573C308.003,296.578 308.003,303.632 308.684,310.637L325.573,314.106C326.6,320.82 328.363,327.4 330.83,333.728L317.939,345.177C320.852,351.584 324.379,357.693 328.471,363.419L344.831,357.979C349.078,363.28 353.895,368.097 359.196,372.343L353.756,388.704C359.482,392.796 365.591,396.323 371.997,399.236L383.446,386.344C389.774,388.812 396.355,390.575 403.069,391.602L406.538,408.491C413.542,409.172 420.597,409.172 427.601,408.491L431.071,391.602C437.784,390.575 444.365,388.812 450.693,386.344L462.142,399.236C468.548,396.323 474.657,392.796 480.383,388.704L474.943,372.343C480.244,368.097 485.061,363.28 489.308,357.979L505.669,363.419C509.761,357.693 513.288,351.584 516.201,345.177L503.309,333.728C505.776,327.4 507.539,320.82 508.567,314.106L525.456,310.637C526.136,303.632 526.136,296.578 525.456,289.573L508.567,286.104C507.539,279.39 505.776,272.81 503.309,266.482L516.201,255.033C513.288,248.626 509.761,242.517 505.669,236.791L489.308,242.231C485.061,236.931 480.244,232.114 474.943,227.867L480.383,211.506C474.657,207.414 468.548,203.887 462.142,200.974L450.693,213.866C444.365,211.399 437.784,209.636 431.071,208.608L427.601,191.719ZM417.07,278.326C429.09,278.326 438.849,288.085 438.849,300.105C438.849,312.125 429.09,321.884 417.07,321.884C405.049,321.884 395.29,312.125 395.29,300.105C395.29,288.085 405.049,278.326 417.07,278.326Z"/>
        </g>
    </g>
</svg>
