<?xml version="1.0" encoding="UTF-8" standalone="no"?>
<!DOCTYPE svg PUBLIC "-//W3C//DTD SVG 1.1//EN" "http://www.w3.org/Graphics/SVG/1.1/DTD/svg11.dtd">
<svg width="100%" height="100%" viewBox="0 0 924 126" version="1.1" xmlns="http://www.w3.org/2000/svg" xmlns:xlink="http://www.w3.org/1999/xlink" xml:space="preserve" xmlns:serif="http://www.serif.com/" style="fill-rule:evenodd;clip-rule:evenodd;stroke-linejoin:round;stroke-miterlimit:2;">
    <g id="Artboard1" transform="matrix(0.974671,0,0,0.728324,-111.113,-220.682)">
        <rect x="114" y="303" width="947.538" height="173" style="fill:none;"/>
        <g transform="matrix(1.02599,0,0,1.37302,-27.5862,-159.706)">
            <path d="M499.595,358.798L523.705,358.798L523.705,416.703C523.705,422.028 526.766,424.179 531.928,424.179L572.986,424.179C578.141,424.179 581.209,422.028 581.209,416.703L581.209,358.798L605.3,358.798L605.3,420.504C605.3,433.6 594.073,443.523 581.202,443.523L523.699,443.523C510.885,443.523 499.595,433.544 499.595,420.504L499.595,358.798ZM385.328,417.386L409.313,417.386C409.708,422.21 412.543,424.186 417.31,424.186L461.379,424.186C465.462,424.186 467.726,420.679 467.726,416.872C467.726,411.773 463.988,409.101 459.164,409.101L411.126,409.101C395.301,409.101 384.525,401.386 384.525,384.715C384.525,376.04 387.931,366.852 395.646,362.198C400.463,359.243 406.359,358.792 411.922,358.792L468.516,358.792C480.772,358.792 490.632,367.466 490.519,379.942L490.519,384.42L465.744,384.42C465.518,380.563 463.248,378.072 459.171,378.072L417.373,378.072C413.12,378.072 409.545,380.224 409.545,384.934C409.545,389.588 413.177,391.344 417.316,391.344L468.529,391.344C485.087,391.344 493.655,402.409 493.655,418.515C493.655,433.939 486.505,443.516 470.511,443.516L409.319,443.516C395.364,443.516 385.498,437.909 385.385,423.05L385.328,417.386ZM955.783,358.798L979.944,358.798L979.944,416.703C979.944,422.028 983.011,424.179 988.166,424.179L1029.22,424.179C1034.37,424.179 1037.44,422.028 1037.44,416.703L1037.44,358.798L1061.54,358.798L1061.54,420.504C1061.54,433.537 1050.26,443.523 1037.44,443.523L979.931,443.523C967.061,443.523 955.771,433.6 955.771,420.504L955.783,358.798ZM752.47,426.795L742.999,443.516L716.236,443.516L762.23,358.798L793.704,358.798L839.704,443.516L812.928,443.516L803.457,426.795L752.47,426.795ZM777.936,380.236L762.738,408.48L793.196,408.48L777.936,380.236ZM614.501,358.798L688.795,358.798C704.727,358.798 716.525,364.355 716.525,382.218C716.525,389.933 713.47,396.682 706.665,400.483C714.141,404.453 718.4,411.817 718.4,420.322C718.4,432.289 710.735,443.516 697.871,443.516L614.501,443.516L614.501,358.798ZM639.17,424.179L684.994,424.179C689.466,424.179 693.612,421.746 693.612,416.866C693.612,412.043 689.416,409.553 684.994,409.553L639.17,409.553L639.17,424.179ZM639.17,392.034L684.994,392.034C689.128,392.034 691.743,389.143 691.743,385.116C691.743,381.089 689.19,378.091 684.994,378.091L639.17,378.091L639.17,392.034ZM844.289,358.798L925.043,358.798C941.156,358.798 948.928,371.957 948.928,386.647C948.928,396.168 945.472,405.074 936.735,409.622C945.246,413.755 949.154,420.278 949.154,429.812L949.154,443.529L925.043,443.529L925.043,429.818C925.043,421.764 920.571,418.873 912.794,418.873L869.139,418.873L869.139,443.529L844.295,443.529L844.289,358.798ZM869.133,399.573L914.33,399.573C920.163,399.573 924.084,394.355 924.084,388.854C924.084,381.823 918.865,378.079 912.116,378.079L869.133,378.079L869.133,399.573ZM245.195,337.592C271.908,337.592 300.547,343.036 323.34,357.5C338.143,366.971 351.923,381.321 351.923,400.025C351.923,421.865 333.269,437.746 315.4,447.041C294.137,458.049 269.011,462.408 245.189,462.408C218.482,462.408 189.9,457.027 167.1,442.507C152.298,433.036 138.462,418.685 138.462,400.025C138.462,378.085 157.065,362.26 174.984,352.959C196.31,341.957 221.38,337.592 245.195,337.592ZM244.969,344.228C220.132,344.228 193.362,348.875 171.811,361.859C158.257,369.969 144.872,382.733 144.872,399.686C144.872,419.601 163.017,433.537 179.237,441.541C199.314,451.344 222.791,455.158 244.969,455.158C269.857,455.158 296.633,450.497 318.185,437.514C331.682,429.348 345.124,416.646 345.124,399.693C345.124,379.735 327.028,365.779 310.758,357.845C290.675,348.022 267.198,344.228 244.969,344.228ZM151.225,385.906L192.114,378.932L204.42,352.219L216.676,378.932L257.558,385.906L216.676,392.944L204.42,419.713L192.114,392.944L151.225,385.906ZM241.112,406.26L259.145,403.092L264.532,391.012L269.92,403.092L287.959,406.26L269.92,409.377L264.532,421.463L259.145,409.377L241.112,406.26ZM278.432,374.052L296.464,370.935L301.852,358.804L307.24,370.935L325.272,374.052L307.24,377.226L301.852,389.312L296.458,377.226L278.432,374.052ZM259.145,431.223L277.121,428.106L282.508,415.969L287.953,428.106L305.985,431.223L287.953,434.397L282.508,446.483L277.121,434.397L259.145,431.223ZM203.742,435.588L221.775,432.471L227.219,420.322L232.601,432.471L250.64,435.588L232.601,438.762L227.219,450.849L221.775,438.762L203.742,435.588ZM294.426,405.764L312.402,402.584L317.789,390.504L323.234,402.584L341.266,405.764L323.234,408.881L317.783,420.949L312.395,408.875L294.426,405.764Z" style="fill-rule:nonzero;"/>
        </g>
    </g>
</svg>
