<svg width="401" height="277" viewBox="0 0 401 277" fill="none" xmlns="http://www.w3.org/2000/svg">
<path d="M0 0H401V277H0V0Z" fill="#EFF3FD"/>
<mask id="mask0_13_1515" style="mask-type:alpha" maskUnits="userSpaceOnUse" x="0" y="0" width="401" height="276">
<path d="M0 0H401V275.422H0V0Z" fill="#C4C4C4"/>
</mask>
<g mask="url(#mask0_13_1515)">
<line y1="-0.5" x2="552.26" y2="-0.5" transform="matrix(0.652497 -0.757791 0.652497 0.757791 5.42389 319.073)" stroke="#BECDF8"/>
<line y1="-0.5" x2="552.26" y2="-0.5" transform="matrix(0.652497 -0.757791 0.652497 0.757791 -114.159 78.0068)" stroke="#BECDF8"/>
<line y1="-0.5" x2="552.26" y2="-0.5" transform="matrix(0.652497 -0.757791 0.652497 0.757791 14.2229 337.652)" stroke="#BECDF8"/>
<line y1="-0.5" x2="552.26" y2="-0.5" transform="matrix(0.652497 -0.757791 0.652497 0.757791 -105.36 96.586)" stroke="#BECDF8"/>
<line y1="-0.5" x2="552.26" y2="-0.5" transform="matrix(0.652497 -0.757791 0.652497 0.757791 23.022 356.231)" stroke="#BECDF8"/>
<line y1="-0.5" x2="552.26" y2="-0.5" transform="matrix(0.652497 -0.757791 0.652497 0.757791 -96.5616 115.165)" stroke="#BECDF8"/>
<line y1="-0.5" x2="552.26" y2="-0.5" transform="matrix(0.652497 -0.757791 0.652497 0.757791 31.8201 374.81)" stroke="#BECDF8"/>
<line y1="-0.5" x2="552.26" y2="-0.5" transform="matrix(0.652497 -0.757791 0.652497 0.757791 -87.7623 133.745)" stroke="#BECDF8"/>
<line y1="-0.5" x2="552.26" y2="-0.5" transform="matrix(0.652497 -0.757791 0.652497 0.757791 40.6194 393.39)" stroke="#BECDF8"/>
<line y1="-0.5" x2="552.26" y2="-0.5" transform="matrix(0.652497 -0.757791 0.652497 0.757791 -78.9639 152.324)" stroke="#BECDF8"/>
<line y1="-0.5" x2="552.26" y2="-0.5" transform="matrix(0.652497 -0.757791 0.652497 0.757791 49.4179 411.969)" stroke="#BECDF8"/>
<line y1="-0.5" x2="552.26" y2="-0.5" transform="matrix(0.652497 -0.757791 0.652497 0.757791 -70.1651 170.903)" stroke="#BECDF8"/>
<line y1="-0.5" x2="552.26" y2="-0.5" transform="matrix(0.652497 -0.757791 0.652497 0.757791 58.2164 430.548)" stroke="#BECDF8"/>
<line y1="-0.5" x2="552.26" y2="-0.5" transform="matrix(0.652497 -0.757791 0.652497 0.757791 -61.3663 189.482)" stroke="#BECDF8"/>
<line y1="-0.5" x2="552.26" y2="-0.5" transform="matrix(0.652497 -0.757791 0.652497 0.757791 67.0154 449.127)" stroke="#BECDF8"/>
<line y1="-0.5" x2="552.26" y2="-0.5" transform="matrix(0.652497 -0.757791 0.652497 0.757791 -52.5676 208.061)" stroke="#BECDF8"/>
<line y1="-0.5" x2="552.26" y2="-0.5" transform="matrix(0.652497 -0.757791 0.652497 0.757791 75.8145 467.707)" stroke="#BECDF8"/>
<line y1="-0.5" x2="552.26" y2="-0.5" transform="matrix(0.652497 -0.757791 0.652497 0.757791 -43.7686 226.641)" stroke="#BECDF8"/>
<line y1="-0.5" x2="552.26" y2="-0.5" transform="matrix(0.652497 -0.757791 0.652497 0.757791 84.6126 486.286)" stroke="#BECDF8"/>
<line y1="-0.5" x2="552.26" y2="-0.5" transform="matrix(0.652497 -0.757791 0.652497 0.757791 -34.9701 245.22)" stroke="#BECDF8"/>
<line y1="-0.5" x2="552.26" y2="-0.5" transform="matrix(0.652497 -0.757791 0.652497 0.757791 93.4114 504.865)" stroke="#BECDF8"/>
<line y1="-0.5" x2="552.26" y2="-0.5" transform="matrix(0.652497 -0.757791 0.652497 0.757791 102.21 523.445)" stroke="#BECDF8"/>
<line y1="-0.5" x2="552.26" y2="-0.5" transform="matrix(0.652497 -0.757791 0.652497 0.757791 -25.7711 265.193)" stroke="#BECDF8"/>
<line y1="-0.5" x2="552.26" y2="-0.5" transform="matrix(0.652497 -0.757791 0.652497 0.757791 111.009 542.024)" stroke="#BECDF8"/>
<line y1="-0.5" x2="552.26" y2="-0.5" transform="matrix(0.652497 -0.757791 0.652497 0.757791 -16.9723 283.772)" stroke="#BECDF8"/>
<line y1="-0.5" x2="552.26" y2="-0.5" transform="matrix(0.652497 -0.757791 0.652497 0.757791 119.808 560.603)" stroke="#BECDF8"/>
<line y1="-0.5" x2="552.26" y2="-0.5" transform="matrix(0.652497 -0.757791 0.652497 0.757791 -8.17444 302.351)" stroke="#BECDF8"/>
</g>
</svg>
